<svg width="1327" height="661" viewBox="0 0 1327 661" fill="none" xmlns="http://www.w3.org/2000/svg">
    <g opacity="0.3">
        <path d="M260.295 40.2692C262.756 46.4939 265.232 52.8007 262.649 59.4221C260.295 65.4416 257.146 69.7784 256.947 76.6051C256.764 82.9255 257.146 88.7261 258.491 94.8824C259.561 99.7665 261.793 104.432 262.145 109.466C262.588 115.663 261.793 122.093 258.629 127.675C255.067 133.941 253.187 139.399 254.089 146.65C255.052 154.462 259.439 162.055 262.297 169.401C263.918 173.574 264.697 177.418 264.254 181.905C263.627 188.144 260.035 193.794 259.087 199.937" stroke="#3D3D3D" stroke-width="3" stroke-miterlimit="10"/>
        <path d="M248.128 39.4487C249.778 46.4806 251.903 55.0721 248.861 62.1997C247.547 65.2779 245.605 67.7541 244.994 71.0922C243.695 78.0967 244.673 84.0614 246.324 90.9018C248.968 101.792 251.231 111.396 247.959 122.627C246.599 127.306 244.459 131.561 242.334 135.898C239.69 141.288 239.736 147.854 240.255 153.655C240.989 161.809 244.383 168.471 247.73 175.914C249.977 180.934 251.506 186.598 250.252 192.016" stroke="#3D3D3D" stroke-width="3" stroke-miterlimit="10"/>
        <path d="M235.334 38.6277C236.771 43.6211 238.421 48.04 238.116 53.3618C237.917 56.6452 236.083 60.1201 234.707 63.1298C232.842 67.2067 230.335 70.5721 229.923 75.1141C229.296 82.1459 230.427 88.8769 232.628 95.5667C236.236 106.498 235.487 116.991 230.473 127.443C224.695 139.495 226.789 150.399 230.886 162.657C235.318 175.913 241.754 190.675 234.126 204" stroke="#3D3D3D" stroke-width="3" stroke-miterlimit="10"/>
        <path d="M221.637 37C222.906 41.5967 225.367 45.4273 224.511 50.3934C223.64 55.4689 220.262 59.6689 218.275 64.3614C215.569 70.7639 214.851 77.0023 214.927 83.829C215.003 90.4094 217.281 96.0458 218.397 102.38C220.919 116.745 213.368 131.588 213.414 145.98C213.429 150.81 213.246 155.571 213.995 160.359C214.789 165.407 216.7 170.086 217.862 175.052C219.024 180.073 220.032 184.792 220.109 189.909C220.139 192.112 221.011 195.245 220.109 197.201" stroke="#3D3D3D" stroke-width="3" stroke-miterlimit="10"/>
    </g>
    <g opacity="0.3">
        <path d="M1284.33 324.71C1281.82 323.937 1276.37 323.522 1275.89 326.913C1275.49 329.716 1279.26 331.353 1281.7 331.45C1283.6 331.526 1286.62 330.752 1286.79 328.591C1286.88 327.403 1285.53 325.608 1284.33 324.71Z" fill="#02546A"/>
        <path d="M1299.98 326.319C1293.35 324.185 1293.68 332.389 1298.86 331.325C1300.52 330.987 1301.9 330.31 1301.72 328.598C1301.6 327.465 1300.74 326.326 1299.57 326.132" fill="#02546A"/>
        <path d="M1294.11 339.584C1286.1 338.252 1287.86 348.907 1293.93 346.269C1297.33 344.784 1296.24 341.677 1294.11 339.584Z" fill="#02546A"/>
        <path d="M1308.09 341.898C1306.24 343.217 1304.77 344.964 1306.27 347.104C1307.88 346.904 1310.2 346.103 1310.53 344.342C1310.74 343.23 1309.74 341.166 1308.41 341.67" fill="#02546A"/>
        <path d="M1296.9 314.904C1294.41 313.04 1288.91 314.911 1292.89 317.445C1295.41 319.061 1299.31 317.729 1296.9 314.904Z" fill="#02546A"/>
        <path d="M1279.3 340.599C1277.94 338.928 1276.2 338.783 1274.21 339.861C1272.64 340.703 1272.26 341.456 1273.43 342.809C1275.2 344.846 1281.61 342.837 1279.3 340.599Z" fill="#02546A"/>
        <path d="M1316.35 332.9C1315.33 332.831 1312.66 332.389 1312.49 333.846C1312.37 334.909 1313.59 335.206 1314.37 335.365C1315.2 335.531 1316.97 335.731 1317.48 334.806C1317.81 334.191 1317.14 332.969 1316.32 333.059" fill="#02546A"/>
        <path d="M1314.99 315.146C1313.33 314.835 1309.84 315.457 1309.95 317.611C1310.04 319.317 1311.82 319.344 1313.13 318.916C1314.89 318.336 1316.17 316.672 1314.99 315.146Z" fill="#02546A"/>
        <path d="M1326.26 322.776C1324.97 322.735 1322.31 323.115 1321.95 324.572C1321.68 325.677 1322.69 326.795 1323.89 326.851C1325.64 326.927 1327.71 324.42 1326.26 322.776Z" fill="#02546A"/>
    </g>
    <g opacity="0.3">
        <path d="M51.5082 514.912C48.9987 514.139 43.5553 513.724 43.0724 517.115C42.67 519.918 46.4453 521.555 48.8816 521.652C50.7839 521.728 53.7982 520.954 53.9738 518.793C54.0616 517.605 52.7081 515.817 51.5082 514.912Z" fill="#02546A"/>
        <path d="M67.158 516.521C60.5294 514.387 60.866 522.591 66.0386 521.527C67.6994 521.189 69.0822 520.512 68.8993 518.8C68.7822 517.667 67.9262 516.528 66.7556 516.334" fill="#02546A"/>
        <path d="M61.2901 529.786C53.286 528.454 55.0419 539.109 61.1072 536.471C64.5093 534.993 63.4264 531.879 61.2901 529.786Z" fill="#02546A"/>
        <path d="M75.2717 532.1C73.4207 533.419 71.9501 535.166 73.4573 537.306C75.0669 537.106 77.3788 536.305 77.7154 534.544C77.9276 533.432 76.9179 531.368 75.5936 531.872" fill="#02546A"/>
        <path d="M64.0849 505.113C61.59 503.249 56.0955 505.12 60.0682 507.654C62.5924 509.263 66.492 507.931 64.0849 505.113Z" fill="#02546A"/>
        <path d="M46.4818 530.801C45.121 529.13 43.387 528.985 41.3897 530.062C39.824 530.905 39.4435 531.658 40.6141 533.011C42.3847 535.048 48.7938 533.039 46.4818 530.801Z" fill="#02546A"/>
        <path d="M83.532 523.109C82.5077 523.04 79.8446 522.598 79.6763 524.055C79.5519 525.118 80.7737 525.415 81.5566 525.574C82.3833 525.74 84.1539 525.94 84.6587 525.015C84.9953 524.4 84.3222 523.178 83.5027 523.267" fill="#02546A"/>
        <path d="M82.1709 505.355C80.5101 505.044 77.0202 505.666 77.13 507.82C77.2178 509.526 79.003 509.553 80.3126 509.125C82.0758 508.538 83.3562 506.874 82.1709 505.355Z" fill="#02546A"/>
        <path d="M93.4381 512.978C92.1505 512.937 89.4946 513.317 89.1361 514.774C88.8654 515.879 89.8751 516.997 91.0676 517.053C92.8235 517.136 94.8941 514.629 93.4381 512.978Z" fill="#02546A"/>
    </g>
    <g opacity="0.3">
        <path d="M654.443 63.2154C651.934 62.442 646.491 62.0277 646.008 65.4182C645.605 68.2218 649.381 69.8584 651.817 69.9551C653.719 70.0311 656.733 69.2577 656.909 67.0963C656.997 65.9086 655.643 64.12 654.443 63.2154Z" fill="#02546A"/>
        <path d="M670.093 64.8244C663.464 62.6906 663.801 70.8942 668.974 69.8308C670.634 69.4924 672.017 68.8157 671.834 67.1031C671.717 65.9707 670.861 64.8313 669.691 64.6379" fill="#02546A"/>
        <path d="M664.226 78.0898C656.222 76.757 657.977 87.4121 664.043 84.7742C667.445 83.2965 666.362 80.1821 664.226 78.0898Z" fill="#02546A"/>
        <path d="M678.207 80.403C676.356 81.722 674.885 83.4691 676.392 85.6098C678.002 85.4095 680.314 84.6085 680.65 82.8476C680.863 81.7358 679.853 79.6711 678.529 80.1752" fill="#02546A"/>
        <path d="M667.02 53.4166C664.526 51.5521 659.031 53.4235 663.004 55.9578C665.528 57.5668 669.428 56.234 667.02 53.4166Z" fill="#02546A"/>
        <path d="M649.417 79.1047C648.056 77.4336 646.322 77.2886 644.325 78.3659C642.759 79.2083 642.379 79.961 643.549 81.3145C645.32 83.3516 651.729 81.3421 649.417 79.1047Z" fill="#02546A"/>
        <path d="M686.467 71.4121C685.443 71.3431 682.78 70.9011 682.611 72.3582C682.487 73.4216 683.709 73.7185 684.492 73.8773C685.318 74.0431 687.089 74.2433 687.594 73.318C687.93 72.7034 687.257 71.4812 686.438 71.5709" fill="#02546A"/>
        <path d="M685.106 53.6582C683.446 53.3475 679.956 53.969 680.066 56.1235C680.153 57.8291 681.938 57.8568 683.248 57.4286C685.011 56.8417 686.292 55.1774 685.106 53.6582Z" fill="#02546A"/>
        <path d="M696.373 61.2819C695.086 61.2405 692.43 61.6203 692.071 63.0774C691.8 64.1822 692.81 65.3009 694.003 65.3561C695.759 65.439 697.829 62.9323 696.373 61.2819Z" fill="#02546A"/>
    </g>
    <g opacity="0.3">
        <path d="M1285.29 3.59827C1287.36 8.54564 1289.44 13.5582 1287.27 18.8209C1285.29 23.6052 1282.64 27.0521 1282.47 32.4779C1282.31 37.5013 1282.64 42.1116 1283.77 47.0046C1284.67 50.8864 1286.55 54.5943 1286.84 58.5957C1287.22 63.5213 1286.55 68.6317 1283.88 73.068C1280.88 78.048 1279.3 82.3865 1280.06 88.1493C1280.87 94.358 1284.57 100.393 1286.97 106.232C1288.34 109.548 1288.99 112.603 1288.62 116.17C1288.09 121.128 1285.07 125.619 1284.27 130.501" stroke="#3D3D3D" stroke-width="3" stroke-miterlimit="10"/>
        <path d="M1275.04 2.94629C1276.43 8.53519 1278.22 15.3637 1275.66 21.0287C1274.55 23.4752 1272.92 25.4432 1272.4 28.0963C1271.31 33.6635 1272.13 38.4042 1273.52 43.8409C1275.75 52.4961 1277.65 60.1293 1274.9 69.0563C1273.75 72.7749 1271.95 76.1565 1270.16 79.6034C1267.94 83.8875 1267.97 89.1066 1268.41 93.7169C1269.03 100.197 1271.89 105.493 1274.71 111.408C1276.6 115.398 1277.89 119.9 1276.83 124.206" stroke="#3D3D3D" stroke-width="3" stroke-miterlimit="10"/>
        <path d="M1264.27 2.2937C1265.48 6.26247 1266.87 9.77458 1266.61 14.0043C1266.44 16.6139 1264.9 19.3758 1263.74 21.7679C1262.17 25.0082 1260.06 27.6829 1259.71 31.2929C1259.18 36.8818 1260.14 42.2315 1261.99 47.5485C1265.03 56.2363 1264.4 64.5763 1260.17 72.8835C1255.31 82.4629 1257.07 91.1289 1260.52 100.871C1264.25 111.408 1269.67 123.14 1263.25 133.731" stroke="#3D3D3D" stroke-width="3" stroke-miterlimit="10"/>
        <path d="M1252.73 1C1253.8 4.65344 1255.87 7.69795 1255.15 11.645C1254.42 15.679 1251.58 19.0171 1249.9 22.7467C1247.62 27.8354 1247.02 32.7936 1247.08 38.2194C1247.15 43.4495 1249.07 47.9293 1250 52.9637C1252.13 64.3807 1245.77 76.1783 1245.81 87.617C1245.82 91.4553 1245.67 95.2392 1246.3 99.0449C1246.97 103.057 1248.58 106.776 1249.55 110.723C1250.53 114.713 1251.38 118.465 1251.45 122.531C1251.47 124.282 1252.21 126.772 1251.45 128.327" stroke="#3D3D3D" stroke-width="3" stroke-miterlimit="10"/>
    </g>
    <g opacity="0.3">
        <path d="M126.839 366.934C124.491 371.77 122.101 376.66 116.571 378.821C111.541 380.783 107.07 381.362 102.805 385.004C98.8567 388.376 95.5541 391.786 92.5966 395.945C90.252 399.245 88.7176 403.092 85.8628 406.064C82.3547 409.727 77.9837 412.809 72.7471 414.064C66.8631 415.468 62.4497 417.393 58.5687 421.899C54.3824 426.749 52.325 433.443 49.5262 439.124C47.9348 442.349 46.0528 444.911 43.0673 447.126C38.9106 450.198 33.3828 451.246 29.0972 454.082" stroke="#3D3D3D" stroke-width="3" stroke-miterlimit="10"/>
        <path d="M120.246 359.503C116.934 364.319 112.951 370.264 106.847 372.441C104.21 373.38 101.573 373.629 99.188 375.114C94.1736 378.223 91.1188 382.065 87.9238 386.775C82.8468 394.283 78.3287 400.865 69.5958 405.167C65.9593 406.961 62.1261 408.074 58.252 409.241C53.4347 410.69 49.4705 414.329 46.2481 417.818C41.7204 422.724 39.6491 428.336 37.0773 434.351C35.3356 438.402 32.7844 442.395 28.7613 444.656" stroke="#3D3D3D" stroke-width="3" stroke-miterlimit="10"/>
        <path d="M113.288 351.713C111.09 355.284 109.367 358.662 105.955 361.415C103.843 363.107 100.662 363.966 98.0311 364.833C94.4664 366.006 90.9599 366.42 87.9589 368.682C83.32 372.191 79.8886 376.543 77.1058 381.486C72.5652 389.569 65.7514 394.912 56.4768 397.786C45.7838 401.102 40.3779 408.302 35.3159 417.395C29.843 427.231 24.6227 439.044 12.0784 441.999" stroke="#3D3D3D" stroke-width="3" stroke-miterlimit="10"/>
        <path d="M106.294 342.961C104.239 346.218 103.346 349.737 99.8287 351.978C96.2362 354.27 91.7146 354.643 87.7044 356.085C82.2363 358.055 78.0261 361.075 73.9217 364.874C69.967 368.538 67.869 372.946 64.6698 377.071C57.4097 386.42 43.9871 390.255 35.267 398.199C32.3409 400.864 29.3406 403.378 26.8671 406.442C24.2623 409.675 22.5325 413.345 20.1915 416.744C17.8172 420.172 15.5368 423.348 12.4717 426.206C11.1509 427.435 9.7547 429.659 8.04006 430.218" stroke="#3D3D3D" stroke-width="3" stroke-miterlimit="10"/>
    </g>
    <g opacity="0.3">
        <path d="M1297.69 576.717C1294.88 581.325 1292.02 585.984 1286.3 587.65C1281.09 589.16 1276.59 589.345 1271.98 592.596C1267.72 595.606 1264.09 598.711 1260.74 602.592C1258.08 605.672 1256.17 609.367 1253.03 612.075C1249.18 615.414 1244.52 618.098 1239.19 618.888C1233.19 619.769 1228.61 621.298 1224.3 625.443C1219.65 629.904 1216.94 636.388 1213.59 641.799C1211.69 644.87 1209.57 647.255 1206.37 649.198C1201.93 651.891 1196.33 652.449 1191.78 654.896" stroke="#3D3D3D" stroke-width="3" stroke-miterlimit="10"/>
        <path d="M1291.86 568.739C1288.09 573.242 1283.54 578.812 1277.24 580.442C1274.53 581.146 1271.88 581.162 1269.35 582.431C1264.06 585.085 1260.63 588.643 1256.99 593.052C1251.19 600.081 1246.05 606.236 1236.93 609.753C1233.13 611.219 1229.2 611.991 1225.23 612.812C1220.29 613.831 1215.98 617.106 1212.43 620.297C1207.44 624.784 1204.82 630.19 1201.67 635.952C1199.54 639.833 1196.6 643.584 1192.37 645.482" stroke="#3D3D3D" stroke-width="3" stroke-miterlimit="10"/>
        <path d="M1285.7 560.37C1283.16 563.733 1281.11 566.945 1277.44 569.386C1275.17 570.885 1271.92 571.461 1269.22 572.093C1265.55 572.948 1262.02 573.051 1258.81 575.04C1253.84 578.126 1250 582.157 1246.74 586.834C1241.42 594.483 1234.11 599.204 1224.59 601.251C1213.62 603.613 1207.53 610.306 1201.59 618.915C1195.17 628.227 1188.81 639.53 1176.03 641.37" stroke="#3D3D3D" stroke-width="3" stroke-miterlimit="10"/>
        <path d="M1279.6 551.042C1277.23 554.104 1276 557.529 1272.27 559.451C1268.47 561.418 1263.93 561.392 1259.8 562.475C1254.16 563.956 1249.67 566.593 1245.21 570.015C1240.91 573.316 1238.39 577.52 1234.79 581.345C1226.64 590.016 1212.9 592.655 1203.43 599.798C1200.26 602.195 1197.02 604.434 1194.26 607.267C1191.35 610.257 1189.26 613.759 1186.59 616.937C1183.89 620.142 1181.31 623.103 1177.97 625.68C1176.54 626.788 1174.93 628.879 1173.17 629.285" stroke="#3D3D3D" stroke-width="3" stroke-miterlimit="10"/>
    </g>
    <g opacity="0.3">
        <path d="M29.153 70.2874C26.1729 69.3143 19.7088 68.793 19.1354 73.059C18.6575 76.5864 23.1407 78.6456 26.0339 78.7672C28.2929 78.8628 31.8725 77.8897 32.081 75.1702C32.1852 73.6759 30.5779 71.4169 29.153 70.2874Z" fill="#02546A"/>
        <path d="M47.7373 72.3117C39.8657 69.6271 40.2654 79.9488 46.408 78.6108C48.3803 78.1851 50.0224 77.3336 49.8051 75.1789C49.6661 73.754 48.6496 72.3204 47.2595 72.0772" fill="#02546A"/>
        <path d="M40.7694 89.002C31.2644 87.3252 33.3496 100.731 40.5522 97.4123C44.5922 95.5443 43.3064 91.6346 40.7694 89.002Z" fill="#02546A"/>
        <path d="M57.3729 91.9126C55.1748 93.572 53.4284 95.7702 55.2182 98.4636C57.1296 98.2116 59.8751 97.2038 60.2748 94.9882C60.5268 93.5894 59.3278 90.9916 57.7552 91.6259" fill="#02546A"/>
        <path d="M44.0886 57.9499C41.1258 55.6041 34.6009 57.9586 39.3187 61.1472C42.3161 63.1803 46.947 61.5034 44.0886 57.9499Z" fill="#02546A"/>
        <path d="M23.1843 90.2793C21.5682 88.1767 19.5091 87.9943 17.1372 89.3496C15.2779 90.4096 14.8261 91.3567 16.2162 93.0596C18.3188 95.6226 25.9298 93.0943 23.1843 90.2793Z" fill="#02546A"/>
        <path d="M67.182 80.5917C65.9656 80.5049 62.8031 79.9488 62.6032 81.782C62.4555 83.12 63.9065 83.4936 64.8361 83.6935C65.8179 83.902 67.9205 84.1539 68.52 82.9897C68.9196 82.2164 68.1203 80.6786 67.1472 80.7916" fill="#02546A"/>
        <path d="M65.5659 58.2539C63.5937 57.8629 59.4493 58.6449 59.5797 61.3557C59.6839 63.5017 61.8039 63.5364 63.3591 62.9977C65.453 62.2679 66.9734 60.174 65.5659 58.2539Z" fill="#02546A"/>
        <path d="M78.946 67.8547C77.4169 67.8026 74.263 68.2804 73.8373 70.1137C73.5158 71.5038 74.7148 72.9113 76.131 72.9808C78.2162 73.0764 80.675 69.9225 78.946 67.8547Z" fill="#02546A"/>
    </g>
</svg>
