<svg width="470" height="470" viewBox="0 0 470 470" fill="none" xmlns="http://www.w3.org/2000/svg">
    <rect width="470" height="470" fill="#64FCD9"/>
    <path fill-rule="evenodd" clip-rule="evenodd" d="M267.016 389.652C312.405 389.652 352.236 355.889 329.867 310.03C307.497 264.172 390.614 265.653 415.029 233.959C444.804 195.306 436.181 31.2321 245.035 131.26C214.416 147.283 135.778 114.775 109.694 130.905C78.9902 149.891 35.7917 188.769 78.9902 228.593C100.269 248.21 23.9796 299.126 57.3929 344.733C89.9958 389.235 112.85 346.812 162.487 355.889C212.125 364.965 233.306 389.652 267.016 389.652Z" fill="white"/>
    <path d="M214.333 309.871C214.333 309.871 224.784 304.955 228.686 301.535C232.588 298.115 237.438 289.617 237.438 289.617C237.438 289.617 290.719 328.097 325.461 322.608C333.465 321.343 349.062 316.022 350.057 306.648C352.773 281.049 315.195 274.508 323.404 261.526C328.414 253.602 343.979 265.396 343.979 265.396L408.537 297.15C408.537 297.15 386.234 352.127 332.11 354.33C265.53 357.041 214.333 309.871 214.333 309.871Z" fill="white"/>
    <path fill-rule="evenodd" clip-rule="evenodd" d="M163.15 94.5672C162.544 94.3293 159.29 90.3449 155.158 89.6197C153.281 89.2902 154.985 91.6806 152.919 91.7021C146.766 91.7661 136.766 90.6101 134.914 91.7021C133.537 92.511 136.569 95.3372 134.914 95.467C119.296 96.6911 95.4704 112.285 90.3012 119.85C88.6561 122.257 101.961 118.173 99.8413 119.363C97.462 120.699 94.8232 129.446 93.2455 136.202C92.1532 140.854 91.4655 146.842 91.2227 153.355C91.0205 158.978 91.1014 159.908 91.9105 162.983C92.8409 166.422 93.5691 167.433 94.8232 166.948C95.2682 166.786 95.4704 166.179 95.4704 165.046C95.4704 164.156 95.9559 161.486 96.5627 159.099L97.6145 154.811L98.0595 156.591C98.6259 158.654 101.943 165.046 104.937 169.698C105.098 169.945 105.793 169.631 106.419 168.117C106.99 166.737 106.758 164.533 107.728 162.171C109.937 156.79 114.274 149.794 119.296 144.193C126.718 135.916 129.181 126.338 136.138 118.649C149.122 104.299 165.418 95.4577 163.15 94.5672Z" fill="white"/>
    <path fill-rule="evenodd" clip-rule="evenodd" d="M100.026 121.315C97.9431 122.99 94.8514 136.575 94.7984 136.802C93.7061 141.455 92.6532 157.61 93.7294 160.669C94.8057 163.728 97.8193 152.702 97.8193 152.702C97.8193 152.702 102.374 164.53 106.399 167.773C106.571 167.911 101.615 153.139 100.026 144.515C97.928 133.131 101.211 120.362 100.026 121.315Z" fill="#E7EAEE"/>
    <path fill-rule="evenodd" clip-rule="evenodd" d="M177.657 359.238C181.541 358.388 188.094 355.43 190.603 354.418C193.112 353.406 200.757 342.611 203.508 330.434C205.49 321.453 206.502 308.669 205.369 306.525C205.202 306.221 204.59 300.408 206.219 302.306C209.839 306.525 214.138 313.149 227.699 301.28C231.393 298.047 236.289 293.875 235 290.187C231.393 279.867 215.758 259.086 213.375 257.512C210.525 255.63 196.121 257.229 174.684 250.902C150.374 243.727 140.251 222.598 130.738 225.348C123.044 227.573 104.611 241.242 99.9845 249.898C78.1443 290.763 104.611 319.399 110.638 327.623L116.49 330.151L116.692 335.369L116.976 338.646C117.502 344.917 117.704 345.483 120.536 347.587C127.615 352.967 141.572 357.983 154.194 359.763C160.06 360.573 172.803 360.289 177.657 359.238Z" fill="white"/>
    <path fill-rule="evenodd" clip-rule="evenodd" d="M118.792 333.459L119.075 336.736C119.601 343.006 119.803 343.573 122.635 345.676C126.811 348.85 133.381 351.898 140.659 354.229C145.717 355.849 151.117 357.123 156.293 357.853C162.159 358.662 174.902 358.379 179.757 357.327C182.156 356.807 162.419 341.301 150.791 345.676C141.862 349.036 120.816 323.406 129.373 316.71C138.972 309.199 121.382 279.572 120.816 273.14C120.249 266.708 118.019 265.171 117.954 265.397C117.889 265.623 117.889 266.392 118.064 268.246C118.818 276.239 118.792 333.459 118.792 333.459Z" fill="#E7EAEE"/>
    <path fill-rule="evenodd" clip-rule="evenodd" d="M116.685 271.304C117.534 271.139 118.356 271.693 118.522 272.542C121.575 288.229 134.49 298.848 157.583 304.401C180.814 309.987 196.638 309.686 204.975 303.723C205.679 303.22 205.154 307.53 204.639 307.861C199.201 311.348 180.712 316.551 158.649 311.848C130.438 305.835 117.193 282.114 115.446 273.141C115.281 272.292 115.835 271.469 116.685 271.304Z" fill="#FFB61D"/>
    <path fill-rule="evenodd" clip-rule="evenodd" d="M104.92 243.003C105.671 242.573 133.691 274.686 172.143 281.954C210.595 289.223 219.905 284.6 221.401 274.686C221.53 273.83 222.329 273.241 223.184 273.37C224.04 273.499 224.629 274.298 224.5 275.153C222.603 287.719 204.81 290.708 171.616 285.043C138.838 279.45 116.366 266.161 104.339 245.141C103.909 244.39 104.169 243.433 104.92 243.003Z" fill="#FFB61D"/>
    <path fill-rule="evenodd" clip-rule="evenodd" d="M266.31 241.222C265.258 240.858 264.125 240.049 263.397 239.118L262.184 237.622L266.472 233.374C273.066 226.901 278.123 220.267 282.492 212.378C283.948 209.748 287.63 200.97 287.63 200.12C287.63 199.837 288.075 198.704 288.6 197.531C289.41 195.832 290.016 195.185 291.756 194.214C293.819 193 296.165 192.596 297.177 193.283C299.119 194.578 299.119 198.664 297.177 205.703C295.033 213.43 292.16 218.972 286.214 226.942C285.283 228.155 283.544 230.542 282.29 232.201C278.932 236.651 276.747 238.795 273.794 240.453C270.881 242.072 269.182 242.274 266.31 241.222ZM295.356 237.581L298.269 238.876C298.873 239.154 305.536 242.356 313.539 246.202C326.443 252.402 342.831 260.276 342.931 260.276C343.093 260.276 343.852 258.521 344.023 256.473C344.428 252.064 345.925 246.077 347.664 241.91C348.473 240.049 349.12 237.723 349.12 237.521C349.12 237.429 348.463 237.163 347.386 236.729C346.104 236.212 344.229 235.456 342.162 234.466C331.968 229.571 312.024 219.579 309.556 218.082C307.129 216.666 306.643 216.545 306.643 217.475C306.643 218.689 304.175 224.312 302.274 227.346C301.263 229.005 299.28 231.998 297.865 233.981L295.356 237.581ZM342.243 252.994C343.403 253.667 341.394 254.653 340.908 254.815C338.05 255.058 334.685 254.52 331.927 252.913C330.486 251.891 319.134 245.585 311.604 241.401C308.161 239.489 305.518 238.02 304.985 237.703C303.286 236.691 301.667 235.599 301.384 235.275C300.535 234.183 301.344 233.698 303.731 233.9C305.165 234.021 339.738 251.542 342.243 252.994ZM177.795 358.904C180.916 358.222 185.76 356.177 188.845 354.876L188.848 354.874C189.601 354.557 190.249 354.283 190.741 354.085C193.25 353.073 200.895 342.278 203.646 330.101C205.628 321.12 206.64 308.336 205.507 306.192C204.824 304.95 208.881 309.116 211.903 312.218L211.904 312.219L211.907 312.223L211.916 312.231L211.916 312.232C212.827 313.167 213.643 314.004 214.205 314.566C231.843 332.083 258.098 346.161 285.364 352.755C298.957 356.073 308.625 357.246 321.611 357.246C343.416 357.246 360.61 352.958 376.225 343.532C376.966 343.084 377.66 342.673 378.322 342.281L378.324 342.28C383.768 339.057 387.01 337.138 395.886 327.148C405.841 315.942 414.697 289.929 417.65 280.948C418.945 276.903 422.1 260.812 422.1 256.797C422.1 252.043 420.442 249.798 418.176 247.493C414.171 243.568 408.75 242.153 404.26 243.852L402.156 244.661L401.509 242.517C400.579 239.28 398.637 236.691 395.643 234.749C391.193 231.796 390.546 231.594 386.541 231.594C383.426 231.594 382.576 231.756 380.594 232.686L378.288 233.738L377.803 232.282C376.872 229.288 373.751 225.115 371.33 223.908C369.183 222.837 365.465 222.739 362.875 223.22C357.211 224.272 353.166 226.901 351.507 230.583C351.022 231.715 350.415 232.605 350.172 232.605C349.97 232.605 342 230.379 332.494 226.172C330.89 225.46 329.384 224.793 327.969 224.166C310.897 216.599 307.197 214.959 307.533 212.904C307.816 211.164 307.735 210.193 307.25 208.697C306.4 206.188 305.43 205.501 302.679 205.501C300.494 205.501 300.494 205.501 300.737 204.408C302.031 198.219 301.991 194.659 300.615 192.393C299.685 190.897 298.593 190.29 296.085 189.926C294.628 189.723 293.94 189.845 292.322 190.735C291.23 191.301 290.3 191.706 290.219 191.625C290.138 191.544 290.421 189.319 290.866 186.689C294.183 167.231 291.62 150.465 283.165 132.665C283.084 132.495 282.991 132.294 282.883 132.064L282.883 132.063C280.313 126.545 269.978 104.355 240.419 93.1584C239.081 92.6516 237.815 92.1616 236.598 91.6907C226.53 87.7934 219.836 85.2025 203.686 85.2293C185.585 85.2595 179.454 87.8184 167.52 93.2798C165.861 94.0484 164.405 94.4934 164.284 94.3316C164.162 94.1293 163.394 93.6439 162.625 93.2393C161.856 92.8348 160.198 91.8234 158.984 91.0143C155.505 88.668 153.361 87.6971 152.269 87.9398C151.015 88.2634 151.015 89.3153 152.269 89.8007C152.795 90.003 153.401 90.6907 153.644 91.3784C154.17 92.8348 154.777 92.9966 155.141 91.783C155.303 91.338 155.545 91.0143 155.667 91.0953C155.713 91.1183 155.867 91.1904 156.102 91.3004C156.693 91.5772 157.797 92.094 158.984 92.673C160.643 93.4821 162.463 94.3316 162.949 94.5339C163.839 94.8575 163.555 95.1003 159.712 97.3657C144.704 106.185 132.486 119.899 125.65 135.514C124.598 137.861 123.667 139.317 122.696 140.126C120.229 142.189 115.374 148.055 114.241 150.361C113.635 151.615 112.34 153.557 111.329 154.69C110.358 155.823 109.306 157.279 108.942 157.886C108.618 158.533 108.295 158.978 108.173 158.897C108.092 158.776 108.214 156.793 108.497 154.488C109.104 149.107 109.104 147.691 108.618 147.57C107.89 147.368 106.838 150.199 106.393 153.719C106.07 155.863 105.989 159.099 106.191 162.417L106.434 167.676L103.561 163.023C102.572 161.466 101.598 159.908 100.908 158.803L100.907 158.802C100.468 158.099 100.143 157.58 100.001 157.36C98.9496 155.823 98.3428 153.517 98.7878 152.748C99.0305 152.303 98.99 152.101 98.5855 152.101C97.7359 152.101 96.0773 154.811 94.985 157.926C94.4591 159.383 93.9332 160.596 93.7714 160.596C93.1646 160.596 93.4478 146.113 94.095 141.461C95.43 132.278 98.9496 120.951 100.527 120.951C100.851 120.951 101.134 120.789 101.134 120.546C101.134 119.818 100.082 120.101 99.2328 121.032C97.3314 123.095 94.8232 129.446 93.2455 136.202C92.1532 140.854 91.4655 146.842 91.2228 153.355C91.0205 158.978 91.1014 159.908 91.9105 162.983C92.8409 166.422 93.5691 167.433 94.8232 166.948C95.2682 166.786 95.4705 166.179 95.4705 165.046C95.4705 164.156 95.9559 161.486 96.5628 159.099L97.6146 154.811L98.0596 156.591C98.6259 158.654 101.943 165.046 104.937 169.698C107 172.854 107.04 173.056 107.728 177.992C108.092 180.783 109.225 187.572 111.855 198.017C114.178 207.245 127.239 216.399 130.501 218.685C130.93 218.986 131.19 219.168 131.232 219.215C131.637 219.66 132.203 219.903 132.527 219.781C132.891 219.66 133.093 219.822 133.093 220.267C133.093 220.671 133.376 221.197 133.7 221.44C134.105 221.723 134.388 222.815 134.469 224.717C134.671 228.519 137.503 235.801 139.687 238.188C141.103 239.725 144.056 240.373 147.333 239.806C149.477 239.483 150.084 239.24 149.882 238.754C149.76 238.431 150.529 238.835 151.581 239.644C163.879 249.03 176.339 254.653 190.336 257.08C195.757 258.011 204.738 258.537 209.633 258.173C213.962 257.889 213.962 257.889 213.76 258.739C213.476 259.872 213.84 260.559 219.787 270.633C224.52 278.602 224.925 279.128 230.184 284.508C241.35 296.038 253.526 304.978 267.321 311.896C280.307 318.369 301.04 323.749 319.993 325.448C338.946 327.147 352.559 309.752 352.519 305.302C352.438 299.193 351.588 295.188 349.525 291.305C347.502 287.543 346.167 286.248 340.099 282.202C333.343 277.712 329.176 274.031 326.425 270.107C324.686 267.639 324.039 264.848 324.039 263.351C324.039 262.38 325.293 260.195 327.154 259.75C328.853 259.305 329.176 259.346 331.078 260.276C332.21 260.802 335.164 262.178 337.591 263.351C340.059 264.483 342.445 265.616 342.931 265.859C344.362 266.256 344.967 269.058 345.295 270.576C345.368 270.916 345.428 271.191 345.48 271.361C346.046 273.464 348.726 276.181 350.455 277.105C353.492 278.729 360.974 278.946 363.038 276.721C363.563 276.155 365.307 275.459 365.666 275.669C366.026 275.88 367.325 277.631 367.325 279.047C367.365 281.474 368.62 283.699 371.29 285.924C376.346 290.132 380.27 291.143 384.235 289.282C386.298 288.311 387.989 287.932 387.989 287.932C387.989 287.932 389.676 290.084 389.777 290.819C390.572 296.567 399.082 298.977 401.347 299.219C401.866 299.271 402.877 299.049 403.903 298.824C405.275 298.522 406.676 298.214 406.97 298.546C407.548 299.198 397.302 316.144 395.886 318.288C382.415 338.515 356.2 350.894 324.12 352.189C303.285 353.038 277.678 347.213 255.468 336.614C241.269 329.777 228.687 321.403 215.216 309.671C212.87 307.648 210.159 305.342 209.188 304.533C208.217 303.765 205.911 301.135 204.131 298.708C201.138 294.663 199.439 293.206 199.439 294.582C199.439 295.188 201.38 298.91 203.605 302.592C204.495 304.048 205.062 305.059 204.86 304.898C204.657 304.736 204.01 307.648 203.403 311.37C201.421 323.304 198.144 335.077 194.827 342.399C193.006 346.363 189.516 349.324 188.464 350.133C184.58 353.086 178.766 354.414 170.716 355.223C160.521 356.234 145.513 353.969 134.064 349.681C131.03 348.548 123.222 345.271 122.696 344.907C122.665 344.876 122.486 343.712 122.236 342.089L122.235 342.088L122.234 342.079L122.152 341.548L122.083 341.101L122.009 340.619C120.552 330.627 118.53 292.154 118.53 274.354C118.53 266.992 118.449 265.373 117.963 265.373C116.952 265.373 116.547 266.344 116.102 269.823C115.091 277.753 115.293 319.138 116.385 327.835L116.628 329.817L115.253 329.049C113.149 327.835 105.139 319.704 102.348 315.942C99.9846 312.725 98.5801 308.606 97.5293 305.524C97.2849 304.807 97.0597 304.146 96.8459 303.566C90.98 287.304 93.0432 269.055 101.134 252.63C108.011 238.633 116.466 230.866 128.845 227.103C130.868 226.497 132.648 225.849 132.85 225.688C133.619 224.959 128.684 225.323 125.973 226.173C117.154 228.883 107.93 236.287 101.66 245.753C92.8409 259.022 88.8764 278.602 91.6678 295.31C92.315 299.274 94.9446 307.851 95.6728 308.458C95.7372 308.522 96.0694 309.219 96.572 310.273L96.5723 310.274L96.5729 310.275L96.5732 310.276C97.9646 313.195 100.659 318.848 102.59 321.403C104.937 324.599 112.016 331.557 114.97 333.701L116.83 335.036L117.114 338.313C117.64 344.583 117.842 345.15 120.674 347.253C127.753 352.634 141.71 357.65 154.332 359.43C160.198 360.239 172.941 359.956 177.795 358.904ZM314.532 320.918C291.028 318.854 262.629 307.648 242.078 290.333C233.42 283.011 222.174 268.772 217.724 260.883C216.794 259.265 216.106 258.496 215.297 258.294C214.447 258.051 215.175 257.808 218.655 257.242C233.34 254.734 247.62 248.625 259.15 239.928L260.849 238.673L261.334 239.847C262.426 242.476 266.634 245.146 269.749 245.146C271.003 245.146 275.21 243.245 277.759 241.505L279.498 240.332L280.914 241.748C282.209 243.043 282.451 243.123 284.879 243.123C287.67 243.123 291.028 241.869 292.889 240.089L293.9 239.159L296.772 241.06C298.31 242.153 302.598 244.539 306.279 246.441C311.781 249.273 317.606 252.549 323.149 255.948L324.039 256.514L323.189 257.647C322.299 258.86 320.641 261.166 320.641 264.686C320.641 268.65 324.764 275.773 332.655 280.665C338.855 284.508 349.525 292.068 349.12 303.118C349.072 304.452 347.583 307.77 345.601 310.763C344.306 312.665 340.706 315.497 337.429 317.155C331.846 319.947 322.016 321.565 314.532 320.918ZM98.8282 139.317C99.9205 139.56 100.649 139.924 100.487 140.086C99.9609 140.612 97.1695 140.369 96.5223 139.722C95.5109 138.751 95.7536 138.063 97.1695 137.78C97.8977 137.658 98.99 137.052 99.5968 136.445C100.204 135.838 100.73 135.555 100.73 135.757C100.73 136.283 98.7068 138.144 97.6955 138.548C97.0482 138.832 97.2505 138.953 98.8282 139.317ZM114.929 139.964C116.102 139.317 115.86 138.872 114.484 139.074C113.109 139.277 113.028 139.115 113.918 137.739C114.282 137.213 114.484 136.445 114.403 136.04C114.282 135.514 113.999 135.757 113.351 137.052C112.866 137.982 112.178 138.751 111.855 138.751C110.843 138.751 110.762 139.56 111.733 139.924C112.987 140.45 113.958 140.45 114.929 139.964ZM100.932 117.876C99.9609 118.038 96.9268 119.252 94.2568 120.587C91.5464 121.881 89.2405 122.973 89.0787 122.933C84.9523 122.488 90.6968 115.611 101.134 108.572C111.126 101.816 117.882 98.2557 124.153 96.4353C128.077 95.3025 132.486 95.1407 133.74 96.0712C134.428 96.5971 134.185 96.6375 131.192 96.678C124.719 96.678 117.235 99.9953 105.058 108.127C98.7473 112.334 91.425 118.362 91.425 119.333C91.425 119.535 92.5982 119.13 94.0546 118.483C97.1696 117.067 100.365 116.339 101.781 116.663C103.278 117.067 102.955 117.593 100.932 117.876ZM116.588 121.355C120.391 120.587 120.552 120.546 120.552 120.142C120.552 119.939 119.096 119.737 117.275 119.656L113.999 119.535L117.033 116.096C118.691 114.195 120.633 112.293 121.321 111.848C122.818 110.878 122.899 110.19 121.685 109.785L120.755 109.502L121.766 109.138C122.332 108.936 123.384 108.855 124.112 108.976C125.205 109.138 125.447 109.057 125.326 108.491C125.205 107.924 124.76 107.803 122.777 107.843C116.992 107.924 114.525 109.462 119.056 110.19C120.31 110.392 121.361 110.716 121.361 110.918C121.361 111.08 121.159 111.242 120.916 111.242C120.148 111.242 113.635 117.836 112.825 119.454C111.571 121.841 112.259 122.205 116.588 121.355ZM143.288 105.659C142.115 105.74 141.831 105.942 141.912 106.508L141.925 106.591L141.925 106.591C141.97 106.89 141.996 107.062 141.929 107.114C141.839 107.185 141.578 107.037 140.967 106.69L140.86 106.63C140.092 106.225 140.011 106.023 140.456 105.699C140.739 105.457 141.508 105.093 142.115 104.971L143.247 104.688L142.398 103.798C141.953 103.272 141.71 102.787 141.831 102.625C142.155 102.301 146.12 102.746 146.686 103.191C146.929 103.393 147.293 103.353 147.535 103.11C148.102 102.544 148.87 102.989 148.87 103.879C148.87 104.364 148.749 104.405 148.385 104.041C148.061 103.717 147.778 103.717 147.414 104C147.09 104.283 146.848 104.283 146.645 103.96C146.524 103.758 145.755 103.555 144.946 103.555C144.2 103.555 143.847 103.555 143.775 103.698C143.71 103.825 143.872 104.067 144.178 104.526C144.823 105.534 144.785 105.538 143.302 105.658L143.288 105.659ZM137.139 94.898C137.139 94.3721 136.653 93.4416 136.046 92.8348L134.914 91.7021L140.982 91.9448C144.34 92.1066 148.142 92.4707 149.477 92.8348C150.812 93.1584 152.35 93.4012 152.916 93.4012C153.765 93.4012 153.604 93.2393 152.026 92.3898C149.275 90.9739 145.755 90.2862 139 89.8007C130.909 89.2343 126.823 90.003 127.591 92.0257C127.713 92.4303 128.36 92.6325 129.331 92.6325C131.313 92.6325 134.55 93.8057 135.642 94.898C136.815 96.0712 137.139 96.0712 137.139 94.898ZM117.397 202.022C120.674 206.229 125.002 211.003 127.025 212.621C128.239 213.592 129.29 214.401 129.371 214.401C129.412 214.401 128.522 212.54 127.389 210.274C122.818 201.172 120.148 192.11 118.894 181.673C118.61 179.367 118.165 177.425 117.68 176.616C116.709 174.998 116.709 172.894 117.72 170.912C118.246 169.86 118.53 168.525 118.53 167.069V164.844L116.588 166.867C114.686 168.849 112.866 169.658 112.866 168.444C112.866 167.554 115.86 163.266 117.437 161.931C118.691 160.879 118.853 160.515 119.258 157.36C119.541 155.458 120.188 152.101 120.714 149.876C121.28 147.651 121.604 145.749 121.523 145.668C121.24 145.385 111.733 156.304 110.439 159.787C110.154 160.552 109.387 161.891 108.78 162.7L107.728 164.05C107.728 164.05 108.055 165.941 108.416 168.318C108.781 170.719 108.952 172.37 109.104 173.84C109.308 175.807 109.479 177.45 110.034 180.136C110.681 183.453 111.329 186.325 111.49 186.528C111.612 186.77 112.138 188.631 112.664 190.694C113.796 195.266 115.698 199.797 117.397 202.022ZM281.561 240.292L280.712 239.442C280.712 239.442 294.812 221.528 297.339 214.927C299.267 209.889 300.401 208.461 301.933 208.461C302.789 208.461 303.488 208.656 303.811 209.142C304.378 209.991 304.923 211.043 304.195 214.643C302.982 220.469 301.121 224.312 295.538 232.605C294.243 234.507 292.585 236.61 291.857 237.338C290.158 238.916 286.335 240.534 284.11 240.898C282.694 241.101 282.29 241.02 281.561 240.292Z" fill="#00160A"/>
    <path d="M393.58 279.867C398.613 266.154 397.851 263.232 396.978 262.946C396.978 262.946 395.056 264.038 394.207 266.344C392.629 270.673 387.229 282 385.206 284.023C382.819 286.41 382.819 286.41 380.392 286.41C377.965 286.41 370.964 282.754 370.011 279.151C368.486 273.386 375.052 253.358 375.214 252.226L374.121 251.457C373.393 252.145 363.921 280.868 351.467 273.383C350.041 272.526 347.017 268.488 346.774 266.344C345.426 260.114 351.611 238.33 352.663 233.855C353.605 229.85 358.506 226.133 364.534 226.133C373.798 226.133 372.553 234.231 376.703 237.084C378.542 238.349 381.564 236.056 382.496 235.882C387.714 234.911 389.714 236.042 393.54 239.078C396.493 241.422 398.678 246.06 401.083 247.695C402.419 248.603 403.836 247.362 404.301 247.128C406.204 246.173 410.288 246.886 411.421 247.695C413.081 248.419 417.15 252.33 417.793 254.606C420.707 264.917 411.507 287.776 408.033 292.064C402.284 299.162 388.547 293.579 393.58 279.867Z" fill="white"/>
    <path fill-rule="evenodd" clip-rule="evenodd" d="M161.007 242.292C172.091 249.291 183.521 253.862 196.547 255.116C206.823 256.087 220.677 254.752 230.629 251.516C239.003 248.805 250.33 241.297 257.895 234.946C272.58 222.647 281.845 203.438 285.89 183.048C286.456 180.176 287.32 172.956 287.28 165.796C287.28 157.462 283.612 134.689 272.5 121.558C249.58 94.4747 211.905 82.2747 180.242 92.6988C168.82 96.4591 156.659 103.272 147.476 112.172C135.906 123.459 127.37 138.832 123.972 154.528C120.412 171.114 125.043 190.937 133.093 207.2C139.525 220.145 150.125 235.374 161.007 242.292ZM269.02 193.405C261.415 216.262 241.592 233.333 216.672 238.512C212.87 239.28 210.24 239.563 204.9 239.644C201.138 239.766 197.375 239.725 196.607 239.644C179.171 237.541 165.902 231.108 153.685 218.891C148.345 213.511 146.079 210.598 142.762 204.853C137.543 195.751 134.752 186.447 133.902 175.241C130.99 136.849 158.458 104.85 197.133 101.533C212.303 100.238 229.132 104.89 241.916 113.952C246.649 117.31 255.225 125.805 257.895 129.77C258.988 131.348 269.587 146.842 271.448 155.742C273.835 167.312 272.904 181.794 269.02 193.405Z" fill="white"/>
    <path fill-rule="evenodd" clip-rule="evenodd" d="M287.294 165.796C287.294 192.949 274.45 222.635 257.873 235.313C249.965 241.362 239.629 248.686 230.629 251.516C217.439 255.663 196.547 255.116 196.547 255.116C196.547 255.116 217.861 252.267 225.76 249.088C248.41 239.973 260.774 225.981 268.409 212.555C283.479 186.054 287.294 165.136 287.294 165.796Z" fill="#E7EAEE"/>
    <path fill-rule="evenodd" clip-rule="evenodd" d="M197.011 234.79C186.21 233.414 175.49 229.571 166.832 223.867C161.695 220.509 153.927 212.621 150.165 206.998C144.785 198.907 141.225 190.249 139.485 180.945C138.231 174.189 138.271 163.792 139.525 157.764C140.82 151.615 142.479 146.923 145.432 140.976C148.87 134.098 152.511 129.042 157.973 123.58C167.277 114.276 178.079 108.369 190.943 105.538C195.11 104.648 210.2 103.919 210.725 104.607C210.847 104.809 211.656 105.335 212.505 105.78C213.355 106.266 215.62 107.965 217.481 109.623C220.273 112.051 221.527 113.588 223.954 117.391C225.613 119.98 226.948 122.326 226.948 122.528C226.948 122.973 228.242 123.783 228.97 123.783C229.982 123.783 230.67 120.748 230.872 115.408C230.993 112.455 231.236 110.028 231.398 110.028C231.964 110.028 238.194 113.467 241.107 115.408C246.811 119.211 252.515 124.551 256.722 130.134C258.624 132.642 258.907 133.289 258.907 134.827C258.907 136.243 259.311 137.335 260.565 139.519C263.721 145.021 266.189 151.939 267.686 159.585C268.656 164.723 268.656 174.432 267.645 179.812C264.894 194.618 256.722 209.344 246.083 218.689C237.061 226.578 227.474 231.432 216.146 233.819C212.263 234.668 200.612 235.235 197.011 234.79ZM168.086 207.119C168.45 206.714 168.693 206.108 168.572 205.824C168.535 205.739 168.029 205.501 167.288 205.153L167.287 205.153C165.559 204.34 162.554 202.927 161.252 201.455C156.074 195.549 154.172 191.139 152.999 182.037C151.866 173.178 152.818 167.188 154.86 157.562C155.856 152.866 158.504 148.988 160.151 146.574C161.271 144.934 161.929 143.97 161.29 143.888C159.712 143.646 159.47 143.767 157.811 145.345C154.251 148.743 152.633 151.453 150.934 156.672C148.304 164.844 147.796 186.928 152.999 196.884C158.202 206.84 167.156 208.171 168.086 207.119ZM225.613 173.137C224.926 179.422 222.012 188.51 218.614 192.474C217.036 194.335 211.245 197.531 206.356 196.884C201.635 196.259 197.942 194.052 194.786 189.319C192.076 185.233 190.676 180.273 189.73 174.027C188.095 163.241 195.231 150.685 198.306 147.57C201.421 144.374 203.646 143.241 206.478 143.201C209.229 143.201 211.009 143.808 213.8 145.79C218.897 149.35 226.948 160.925 225.613 173.137ZM171.08 139.681C171.889 138.751 172.01 138.306 171.768 136.566C171.606 134.948 171.282 134.301 170.433 133.613C168.936 132.399 167.075 132.399 165.7 133.694C164.729 134.624 164.607 134.948 164.729 137.173C164.85 139.56 164.931 139.722 166.266 140.45C168.046 141.421 169.785 141.138 171.08 139.681ZM196.324 114.721C189.042 119.939 185.886 122.083 182.61 124.106C180.02 125.724 179.211 125.765 179.211 124.308C179.211 123.54 179.778 122.69 181.234 121.355L183.257 119.494L179.333 118.968C174.923 118.402 170.635 117.188 169.705 116.258C168.167 114.68 169.502 114.316 173.871 115.125C175.813 115.449 179.575 115.853 182.245 115.934L187.1 116.137L190.62 113.588C198.346 108.005 206.356 104.85 210.2 105.821C212.586 106.387 212.303 107.034 209.593 107.358C206.478 107.722 204.576 108.774 196.324 114.721Z" fill="white"/>
    <path d="M206.72 191.342C206.72 191.139 206.963 190.937 207.287 190.937C207.61 190.937 208.015 191.139 208.136 191.342C208.258 191.584 208.015 191.746 207.57 191.746C207.085 191.746 206.72 191.584 206.72 191.342Z" fill="white"/>
    <path d="M209.148 190.978C209.148 190.533 210.159 190.128 211.292 190.128C212.182 190.168 212.182 190.168 211.413 190.735C210.523 191.423 209.148 191.544 209.148 190.978Z" fill="white"/>
    <path d="M202.877 189.926C202.756 189.602 202.594 189.036 202.473 188.712C202.351 188.308 202.554 188.105 203.08 188.105C203.525 188.105 203.889 188.348 203.889 188.672C203.889 188.995 204.01 189.521 204.131 189.885C204.293 190.33 204.172 190.533 203.727 190.533C203.363 190.533 202.958 190.249 202.877 189.926Z" fill="white"/>
    <path d="M205.021 188.914C204.819 187.701 205.264 187.296 206.72 187.296C207.165 187.296 207.53 187.701 207.691 188.388C208.015 189.562 207.489 190.128 206.073 190.128C205.426 190.128 205.143 189.845 205.021 188.914Z" fill="white"/>
    <path d="M200.895 189.117C200.126 188.51 200.126 188.51 200.976 188.51C201.502 188.51 201.866 188.753 201.866 189.117C201.866 189.845 201.866 189.845 200.895 189.117Z" fill="white"/>
    <path d="M209.026 189.076C208.501 188.55 208.743 186.973 209.391 186.73C210.564 186.285 211.09 186.487 211.332 187.539C211.494 188.146 211.575 188.672 211.494 188.712C211.171 189.076 209.269 189.319 209.026 189.076Z" fill="white"/>
    <path d="M212.627 188.227C212.506 188.105 212.384 187.579 212.384 187.094C212.384 186.406 212.708 186.123 213.679 185.921C214.528 185.759 215.054 185.84 215.297 186.163C215.701 186.811 215.701 187.62 215.337 187.822C214.609 188.227 212.91 188.469 212.627 188.227Z" fill="white"/>
    <path d="M199.034 186.973C199.034 186.487 199.398 186.083 199.924 185.961C200.976 185.678 200.935 185.638 201.138 186.689C201.219 187.296 201.016 187.539 200.167 187.62C199.277 187.741 199.034 187.579 199.034 186.973Z" fill="white"/>
    <path d="M202.109 187.013C201.542 186.406 201.906 185.273 202.675 185.273C203.201 185.273 203.484 185.557 203.484 186.042C203.484 186.811 202.554 187.458 202.109 187.013Z" fill="white"/>
    <path d="M204.536 185.799C204.212 185.031 204.9 184.464 206.235 184.464C206.842 184.464 207.125 184.707 207.125 185.233C207.125 185.678 206.761 186.083 206.235 186.244C204.9 186.568 204.819 186.568 204.536 185.799Z" fill="white"/>
    <path d="M216.227 185.678C216.349 185.476 216.551 185.273 216.672 185.273C216.794 185.273 216.753 185.476 216.632 185.678C216.51 185.921 216.308 186.083 216.187 186.083C216.065 186.083 216.106 185.921 216.227 185.678Z" fill="white"/>
    <path d="M208.177 184.99C207.853 184.181 208.258 183.777 209.552 183.574C210.28 183.493 210.604 183.655 210.685 184.222C210.968 185.557 208.662 186.285 208.177 184.99Z" fill="white"/>
    <path d="M198.468 184.303C198.104 182.968 198.185 182.846 199.236 182.846C199.803 182.846 200.248 183.008 200.248 183.21C200.248 183.413 200.369 183.858 200.491 184.181C200.612 184.586 200.369 184.828 199.681 184.95C198.913 185.112 198.63 184.95 198.468 184.303Z" fill="white"/>
    <path d="M211.98 183.858C211.98 183.129 212.263 182.806 213.031 182.603C214.164 182.32 214.811 182.887 214.811 184.181C214.811 184.707 214.488 184.869 213.396 184.869C212.141 184.869 211.98 184.748 211.98 183.858Z" fill="white"/>
    <path d="M197.254 183.858C197.133 183.534 197.214 183.251 197.416 183.251C197.659 183.251 197.821 183.534 197.821 183.858C197.821 184.181 197.74 184.464 197.659 184.464C197.578 184.464 197.416 184.181 197.254 183.858Z" fill="white"/>
    <path d="M201.34 184.181C200.774 183.655 201.097 182.523 201.826 182.32C202.271 182.199 202.716 182.239 202.837 182.361C203.322 182.806 203.039 183.979 202.432 184.222C201.664 184.505 201.664 184.505 201.34 184.181Z" fill="white"/>
    <path d="M215.782 183.898C215.337 182.725 215.823 181.835 216.956 181.713C217.805 181.592 218.048 181.754 218.048 182.401C218.048 183.736 217.603 184.464 216.794 184.464C216.349 184.464 215.904 184.222 215.782 183.898Z" fill="white"/>
    <path d="M204.172 183.372C203.686 182.927 203.848 182.118 204.536 181.875C205.305 181.592 206.923 182.401 206.478 182.846C205.911 183.332 204.455 183.696 204.172 183.372Z" fill="white"/>
    <path d="M207.691 182.361C207.327 181.794 208.622 180.823 209.674 180.823C210.159 180.823 210.361 181.066 210.28 181.511C210.119 182.32 208.055 182.968 207.691 182.361Z" fill="white"/>
    <path d="M196.607 182.078C196.607 181.875 196.485 181.43 196.364 181.066C196.243 180.702 196.283 180.419 196.526 180.419C197.052 180.419 197.456 181.956 196.971 182.28C196.769 182.401 196.607 182.32 196.607 182.078Z" fill="white"/>
    <path d="M197.699 181.147C197.456 180.257 197.942 179.61 198.872 179.61C199.398 179.61 199.924 181.188 199.601 181.713C199.156 182.401 197.901 181.997 197.699 181.147Z" fill="white"/>
    <path d="M200.531 181.349C199.924 180.743 200.288 179.286 201.097 179.084C201.704 178.922 202.028 179.124 202.351 179.853C202.594 180.378 202.715 180.904 202.635 180.985C202.23 181.349 200.774 181.633 200.531 181.349Z" fill="white"/>
    <path d="M211.454 181.349C210.928 180.823 211.171 180.5 212.384 180.055C213.396 179.731 213.679 179.772 213.881 180.257C214.245 181.228 212.222 182.158 211.454 181.349Z" fill="white"/>
    <path d="M215.014 180.419C214.609 179.772 215.175 179.205 216.227 179.205C217.481 179.205 217.845 180.257 216.713 180.581C215.499 180.904 215.297 180.864 215.014 180.419Z" fill="white"/>
    <path d="M218.452 179.448C218.452 178.841 219.18 178.194 219.504 178.518C219.787 178.801 219.221 180.014 218.816 180.014C218.614 180.014 218.452 179.772 218.452 179.448Z" fill="white"/>
    <path d="M196.081 178.922C195.919 178.801 195.798 178.275 195.838 177.83C195.838 177.061 195.879 177.061 196.243 177.951C196.647 178.922 196.566 179.408 196.081 178.922Z" fill="white"/>
    <path d="M196.85 178.315C196.485 176.899 196.526 176.778 197.578 176.778C198.751 176.778 199.479 178.275 198.589 178.841C197.659 179.408 197.133 179.246 196.85 178.315Z" fill="white"/>
    <path d="M210.766 179.124C210.766 179.003 210.968 178.356 211.211 177.628C211.777 176.009 213.031 175.928 213.315 177.506C213.436 178.113 213.476 178.639 213.436 178.679C213.234 178.922 210.766 179.286 210.766 179.124Z" fill="white"/>
    <path d="M199.722 178.113C199.56 177.992 199.439 177.506 199.439 177.061C199.439 176.414 199.56 176.373 200.045 176.778C200.369 177.061 200.652 177.547 200.652 177.83C200.652 178.437 200.167 178.598 199.722 178.113Z" fill="white"/>
    <path d="M214.285 177.304C214.043 176.05 214.569 175.483 215.823 175.645C216.43 175.726 216.632 176.09 216.632 176.98C216.632 177.992 216.47 178.234 215.58 178.315C214.69 178.437 214.488 178.234 214.285 177.304Z" fill="white"/>
    <path d="M218.25 177.466C217.724 175.848 217.886 175.362 218.978 175.241C219.949 175.119 220.07 175.241 220.07 176.293C220.07 177.183 219.828 177.547 219.221 177.708C218.776 177.83 218.331 177.708 218.25 177.466Z" fill="white"/>
    <path d="M195.474 175.16C195.474 174.391 195.555 174.068 195.676 174.472C195.757 174.836 195.757 175.483 195.676 175.888C195.555 176.252 195.474 175.928 195.474 175.16Z" fill="white"/>
    <path d="M196.485 175.686C195.96 175.2 196.202 173.623 196.85 173.38C197.78 173.016 198.225 173.461 198.225 174.796C198.225 175.645 198.023 175.969 197.497 175.969C197.092 175.969 196.607 175.848 196.485 175.686Z" fill="white"/>
    <path d="M198.913 174.593C198.751 173.987 198.67 173.339 198.832 173.218C199.236 172.813 199.479 173.461 199.358 174.634L199.236 175.767L198.913 174.593Z" fill="white"/>
    <path d="M211.98 174.31C211.98 173.865 212.182 173.623 212.384 173.744C212.627 173.865 212.789 174.27 212.789 174.593C212.789 174.917 212.627 175.16 212.384 175.16C212.182 175.16 211.98 174.796 211.98 174.31Z" fill="white"/>
    <path d="M213.8 174.836C213.234 174.229 213.679 173.137 214.609 172.894C215.782 172.611 215.823 172.611 216.187 173.784C216.43 174.513 216.268 174.674 215.216 174.836C214.569 174.958 213.921 174.917 213.8 174.836Z" fill="white"/>
    <path d="M217.522 174.068C217.077 173.663 217.198 172.328 217.643 172.328C217.886 172.328 218.048 172.166 218.048 171.923C218.048 171.721 217.805 171.519 217.481 171.519C216.794 171.519 216.227 169.537 216.794 168.97C217.522 168.242 218.331 169.011 218.816 170.993C219.1 172.045 219.383 173.258 219.504 173.663C219.666 174.189 219.504 174.351 218.735 174.351C218.21 174.351 217.643 174.229 217.522 174.068Z" fill="white"/>
    <path d="M219.706 171.923C219.423 170.71 218.695 168.283 218.169 166.503C217.36 163.913 217.279 163.266 217.724 162.983C218.007 162.781 218.371 162.619 218.493 162.619C218.938 162.619 220.556 170.912 220.394 172.53L220.273 174.148L219.706 171.923Z" fill="white"/>
    <path d="M195.07 171.721C195.07 171.074 195.15 170.831 195.272 171.236C195.353 171.6 195.353 172.166 195.272 172.449C195.15 172.692 195.07 172.409 195.07 171.721Z" fill="white"/>
    <path d="M195.879 171.64C196.04 170.224 197.214 169.901 197.537 171.195C197.82 172.247 197.901 172.126 196.688 172.53C195.838 172.773 195.757 172.692 195.879 171.64Z" fill="white"/>
    <path d="M212.951 171.276C212.627 170.103 213.315 169.415 214.609 169.577C215.58 169.698 215.944 171.438 215.135 171.964C214.124 172.611 213.193 172.328 212.951 171.276Z" fill="white"/>
    <path d="M198.225 170.953C198.225 170.265 198.427 169.901 198.872 169.901C199.277 169.901 199.439 170.184 199.358 170.791C199.155 172.085 198.225 172.207 198.225 170.953Z" fill="white"/>
    <path d="M194.625 169.253C194.625 168.808 194.746 168.687 194.867 169.011C194.989 169.294 194.948 169.658 194.827 169.779C194.706 169.941 194.584 169.698 194.625 169.253Z" fill="white"/>
    <path d="M195.393 169.132C195.393 168.525 195.636 168.283 196.243 168.283C196.809 168.283 197.011 168.485 196.931 168.97C196.728 170.022 195.393 170.143 195.393 169.132Z" fill="white"/>
    <path d="M197.618 168.768C197.335 168.04 197.335 168.04 198.549 167.716C199.277 167.473 199.439 167.595 199.439 168.202C199.439 169.173 197.982 169.658 197.618 168.768Z" fill="white"/>
    <path d="M212.263 168.202C211.98 167.19 212.505 166.664 213.921 166.664C214.609 166.664 214.811 166.907 214.811 167.676C214.811 168.283 214.569 168.687 214.245 168.687C213.921 168.687 213.395 168.808 213.072 168.93C212.708 169.051 212.425 168.808 212.263 168.202Z" fill="white"/>
    <path d="M215.782 167.271C215.459 166.462 215.944 165.855 216.875 165.855C217.441 165.855 217.643 166.138 217.643 166.867C217.643 167.595 217.441 167.878 216.834 167.878C216.389 167.878 215.904 167.595 215.782 167.271Z" fill="white"/>
    <path d="M194.989 166.705C194.989 165.855 195.919 164.884 196.324 165.329C196.485 165.451 196.607 166.017 196.607 166.543C196.607 167.19 196.364 167.473 195.798 167.473C195.272 167.473 194.989 167.19 194.989 166.705Z" fill="white"/>
    <path d="M197.214 166.219C196.89 165.208 197.254 164.763 198.63 164.561C199.884 164.399 200.288 165.734 199.196 166.543C198.144 167.312 197.497 167.19 197.214 166.219Z" fill="white"/>
    <path d="M211.858 165.977C211.575 165.734 211.454 164.237 211.696 164.237C211.737 164.237 212.344 164.075 213.072 163.873C214.285 163.509 214.366 163.549 214.326 164.642C214.285 165.451 214.043 165.855 213.436 166.017C212.344 166.3 212.182 166.3 211.858 165.977Z" fill="white"/>
    <path d="M210.361 165.046C210.361 164.763 210.483 164.642 210.645 164.763C210.766 164.925 210.766 165.168 210.645 165.329C210.483 165.451 210.361 165.329 210.361 165.046Z" fill="white"/>
    <path d="M214.892 164.399C215.014 163.711 216.268 162.7 216.551 163.023C216.672 163.145 216.874 163.63 216.996 164.156C217.279 164.965 217.158 165.046 216.025 165.046C215.054 165.046 214.771 164.884 214.892 164.399Z" fill="white"/>
    <path d="M195.393 164.358C195.393 164.156 195.595 163.752 195.798 163.428C196.121 162.943 196.202 162.983 196.202 163.752C196.202 164.237 196.04 164.642 195.798 164.642C195.595 164.642 195.393 164.52 195.393 164.358Z" fill="white"/>
    <path d="M196.607 163.468C196.607 162.336 197.456 161.972 198.104 162.821C198.508 163.428 198.508 163.63 198.104 163.913C197.254 164.439 196.607 164.278 196.607 163.468Z" fill="white"/>
    <path d="M208.905 162.943C208.177 162.133 208.177 162.093 208.865 162.336C209.269 162.498 209.795 162.619 209.997 162.619C210.2 162.619 210.361 162.902 210.361 163.226C210.361 164.075 209.795 163.994 208.905 162.943Z" fill="white"/>
    <path d="M200.207 162.902C198.468 161.567 198.225 158.573 199.843 158.573C200.935 158.573 201.947 160.273 201.785 161.85C201.664 163.307 201.178 163.63 200.207 162.902Z" fill="white"/>
    <path d="M211.292 163.145C211.454 163.023 211.696 163.023 211.858 163.145C211.98 163.307 211.858 163.428 211.575 163.428C211.292 163.428 211.17 163.307 211.292 163.145Z" fill="white"/>
    <path d="M217.4 161.567C217.522 161.203 217.643 160.839 217.643 160.758C217.643 160.677 217.845 160.596 218.048 160.596C218.29 160.596 218.452 160.96 218.452 161.405C218.452 161.891 218.169 162.214 217.805 162.214C217.36 162.214 217.239 162.012 217.4 161.567Z" fill="white"/>
    <path d="M196.202 161.446C196.202 160.515 197.052 158.978 197.537 158.978C198.387 158.978 197.78 161.567 196.89 161.729C196.526 161.81 196.202 161.688 196.202 161.446Z" fill="white"/>
    <path d="M205.305 161.001L204.091 160.718L205.183 160.434C206.316 160.111 207.125 160.353 207.125 161.041C207.125 161.446 207.085 161.446 205.305 161.001Z" fill="white"/>
    <path d="M203.889 159.059C203.889 157.4 204.819 157.158 205.669 158.614C206.235 159.585 206.275 159.787 205.75 159.787C205.426 159.787 204.9 159.908 204.536 160.03C204.05 160.232 203.889 159.989 203.889 159.059Z" fill="white"/>
    <path d="M210.928 159.625C209.107 158.816 207.934 156.672 207.934 154.123C207.934 152.303 208.096 151.858 209.188 150.847C209.876 150.199 210.564 149.673 210.766 149.673C211.656 149.673 214.933 152.788 216.025 154.73L217.279 156.955L215.944 158.371C214.407 159.989 212.708 160.434 210.928 159.625Z" fill="white"/>
    <path d="M202.473 158.573C202.351 158.371 202.432 158.169 202.635 158.169C202.877 158.169 203.08 158.371 203.08 158.573C203.08 158.816 202.999 158.978 202.918 158.978C202.796 158.978 202.594 158.816 202.473 158.573Z" fill="white"/>
    <path d="M197.173 157.926C197.295 157.562 197.416 157.198 197.416 157.117C197.416 157.036 197.78 156.955 198.225 156.955C199.236 156.955 199.277 157.603 198.266 158.169C197.173 158.735 196.89 158.695 197.173 157.926Z" fill="white"/>
    <path d="M200.369 157.441C199.439 157.319 199.155 156.793 199.762 156.429C199.924 156.308 200.652 156.106 201.38 155.944C202.473 155.701 202.675 155.782 202.675 156.47C202.675 157.319 201.826 157.683 200.369 157.441Z" fill="white"/>
    <path d="M203.484 156.065C203.484 155.58 203.525 155.297 203.605 155.378C203.646 155.458 203.97 155.863 204.253 156.268C204.738 156.834 204.698 156.955 204.131 156.955C203.727 156.955 203.484 156.632 203.484 156.065Z" fill="white"/>
    <path d="M197.82 155.782C197.82 155.539 198.023 155.256 198.225 155.135C198.468 155.013 198.63 155.175 198.63 155.499C198.63 155.863 198.468 156.146 198.225 156.146C198.023 156.146 197.82 155.984 197.82 155.782Z" fill="white"/>
    <path d="M199.317 155.175C198.994 154.366 201.866 153.476 202.351 154.245C202.715 154.892 202.351 155.175 200.814 155.499C199.884 155.701 199.479 155.62 199.317 155.175Z" fill="white"/>
    <path d="M203.12 153.881C203.12 153.436 203.241 153.314 203.363 153.638C203.484 153.921 203.444 154.285 203.322 154.407C203.201 154.568 203.08 154.326 203.12 153.881Z" fill="white"/>
    <path d="M199.681 153.233C200.167 152.343 201.583 150.887 201.947 150.887C202.351 150.887 202.392 152.788 201.987 153.031C201.785 153.112 201.138 153.314 200.531 153.476C199.641 153.678 199.439 153.638 199.681 153.233Z" fill="white"/>
    <path d="M202.918 152.303C202.473 151.089 202.675 150.563 203.646 150.402C204.657 150.199 204.657 150.199 204.01 151.453C203.201 153.072 203.241 153.072 202.918 152.303Z" fill="white"/>
    <path d="M202.675 149.876C202.675 149.795 203.484 149.228 204.496 148.662C205.709 147.934 206.559 147.691 207.166 147.853C207.894 148.096 207.691 148.258 205.911 149.107C203.929 149.997 202.675 150.321 202.675 149.876Z" fill="white"/>
    <path d="M225.127 114.033C224.035 112.455 221.729 109.907 220.071 108.369C218.412 106.832 217.32 105.578 217.643 105.578C218.533 105.578 225.33 107.439 227.029 108.167C228.445 108.774 228.485 108.855 228.121 110.109C227.919 110.837 227.757 112.658 227.757 114.154C227.757 115.692 227.636 116.905 227.474 116.905C227.271 116.905 226.26 115.611 225.127 114.033Z" fill="white"/>
    <path d="M142.802 236.57C141.144 235.72 140.78 235.235 138.676 231.068C135.642 225.162 135.561 223.786 138.433 227.144C139.566 228.479 142.195 231.23 144.259 233.253C147.778 236.651 147.94 236.893 146.767 236.732C145.917 236.61 145.594 236.691 145.796 237.015C146.281 237.743 144.744 237.541 142.802 236.57Z" fill="white"/>
    <path fill-rule="evenodd" clip-rule="evenodd" d="M210.599 310.275C210.264 309.477 210.638 308.558 211.435 308.223L212.307 307.853C220.781 304.227 225.645 302.049 228.95 298.591C232.255 295.132 232.65 290.052 233.271 286.961C233.442 286.113 235.363 287.602 236.211 287.773C237.059 287.943 237.609 288.769 237.438 289.617C236.692 293.334 234.681 296.877 231.445 300.24C228.219 303.593 221.974 307.185 212.651 311.111C211.854 311.446 210.935 311.072 210.599 310.275Z" fill="#00160A"/>
    <path fill-rule="evenodd" clip-rule="evenodd" d="M248.92 148.861C249.664 148.418 250.625 148.662 251.068 149.406C255.499 156.85 257.873 165.36 257.873 174.213C257.873 201.036 236.129 222.78 209.307 222.78C202.179 222.78 195.266 221.243 188.936 218.314C188.151 217.951 185.184 215.058 188.172 216.234C191.16 217.411 202.719 220.052 209.39 220.052C234.482 220.052 252.233 199.305 252.233 174.213C252.233 165.928 248.92 158.573 248.375 151.008C248.312 150.131 248.177 149.303 248.92 148.861Z" fill="#00160A"/>
    <path fill-rule="evenodd" clip-rule="evenodd" d="M93.7611 267.433C94.3149 266.769 95.3027 265.425 95.9676 265.979C98.6949 268.251 101.605 270.883 104.719 271.391C107.958 271.919 111.802 271.919 116.243 271.382C117.102 271.278 117.883 271.89 117.987 272.749C118.091 273.608 117.479 274.388 116.62 274.492C111.903 275.063 107.769 275.063 104.214 274.483C100.532 273.882 97.1085 272.261 93.9622 269.64C93.2974 269.086 93.2074 268.098 93.7611 267.433Z" fill="#00160A"/>
    <path d="M127.025 212.621C125.002 211.003 120.674 206.229 117.397 202.022C115.698 199.797 113.796 195.266 112.664 190.694C112.138 188.631 111.612 186.77 111.49 186.528C111.329 186.325 110.681 183.453 110.034 180.136C109.063 175.443 109.269 173.931 108.416 168.318C108.055 165.941 107.728 164.05 107.728 164.05L108.78 162.7C109.387 161.891 110.154 160.552 110.439 159.787C111.733 156.304 121.24 145.385 121.523 145.668C121.604 145.749 121.28 147.651 120.714 149.876C120.188 152.101 119.541 155.458 119.258 157.36C118.853 160.515 118.691 160.879 117.437 161.931C115.86 163.266 112.866 167.554 112.866 168.444C112.866 169.658 114.686 168.849 116.588 166.867L118.53 164.844V167.069C118.53 168.525 118.246 169.86 117.72 170.912C116.709 172.894 116.709 174.998 117.68 176.616C118.165 177.425 118.61 179.367 118.894 181.673C120.148 192.11 122.818 201.172 127.389 210.274C128.522 212.54 129.412 214.401 129.371 214.401C129.29 214.401 128.239 213.592 127.025 212.621Z" fill="white"/>
    <path fill-rule="evenodd" clip-rule="evenodd" d="M295.356 237.581L298.269 238.876C298.873 239.154 305.536 242.356 313.539 246.202C326.443 252.402 342.831 260.276 342.931 260.276C343.093 260.276 343.852 258.521 344.023 256.473C344.428 252.064 345.925 246.077 347.664 241.91C348.473 240.049 349.121 237.723 349.121 237.521C349.121 237.429 348.463 237.163 347.386 236.729C346.104 236.212 344.229 235.456 342.162 234.466C331.968 229.571 312.024 219.579 309.556 218.082C307.129 216.666 306.643 216.545 306.643 217.475C306.643 218.689 304.176 224.312 302.274 227.346C301.263 229.005 299.281 231.998 297.865 233.981L295.356 237.581ZM342.243 252.994C343.403 253.667 341.394 254.653 340.908 254.815C338.05 255.057 334.685 254.52 331.927 252.913C330.486 251.891 319.134 245.585 311.604 241.401C308.161 239.489 305.518 238.02 304.985 237.703C303.286 236.691 301.667 235.599 301.384 235.275C300.535 234.183 301.344 233.698 303.731 233.9C305.165 234.021 339.738 251.542 342.243 252.994Z" fill="white"/>
    <path d="M266.31 241.222C265.258 240.858 264.125 240.049 263.397 239.118L262.184 237.622L266.472 233.374C273.066 226.901 277.92 219.827 282.29 211.939C283.746 209.309 288.075 198.704 288.6 197.531C289.41 195.832 290.016 195.185 291.756 194.214C293.819 193 296.165 192.596 297.177 193.283C299.119 194.578 299.119 198.664 297.177 205.703C295.033 213.43 292.16 218.972 286.214 226.942C285.283 228.155 283.544 230.542 282.29 232.201C278.932 236.651 276.747 238.795 273.794 240.453C270.881 242.072 269.182 242.274 266.31 241.222Z" fill="white"/>
    <path d="M281.561 240.292L280.712 239.442C280.712 239.442 294.812 221.528 297.339 214.927C299.267 209.889 300.402 208.461 301.933 208.461C302.789 208.461 303.488 208.656 303.811 209.142C304.378 209.991 304.924 211.043 304.195 214.643C302.982 220.469 301.121 224.312 295.538 232.605C294.244 234.507 292.585 236.61 291.857 237.338C290.158 238.916 286.335 240.534 284.11 240.898C282.694 241.101 282.29 241.02 281.561 240.292Z" fill="white"/>
    <path fill-rule="evenodd" clip-rule="evenodd" d="M305.246 221.559C306.062 219.692 306.643 218.064 306.643 217.475C306.643 216.545 307.129 216.666 309.556 218.082C312.024 219.579 331.968 229.571 342.162 234.466C345.965 236.287 349.121 237.319 349.121 237.521C349.121 237.723 304.381 223.538 305.246 221.559Z" fill="#E7EAEE"/>
    <path fill-rule="evenodd" clip-rule="evenodd" d="M166.832 223.867C161.695 220.509 153.927 212.621 150.165 206.998C144.785 198.907 141.225 190.249 139.485 180.945C138.231 174.189 138.271 163.792 139.525 157.764C140.82 151.615 142.479 146.923 145.432 140.976C148.87 134.098 152.511 129.042 157.973 123.58C163.328 118.225 139.525 140.372 145.432 179.999C150.165 213.206 170.507 226.288 166.832 223.867Z" fill="#E7EAEE"/>
</svg>
